<?xml version="1.0" standalone="no"?>
<!DOCTYPE svg PUBLIC "-//W3C//DTD SVG 1.1//EN" "http://www.w3.org/Graphics/SVG/1.1/DTD/svg11.dtd">
<svg t="1505361243551" class="icon" style="" viewBox="0 0 1024 1024" version="1.1" xmlns="http://www.w3.org/2000/svg" p-id="1026" xmlns:xlink="http://www.w3.org/1999/xlink" width="24" height="24">
    <path d="M492.843196 920.788314c-235.95599 0-427.909813-183.402053-427.909813-408.780127 0-225.422076 191.954847-408.795477 427.909813-408.795477 225.977731 0 413.611156 168.627559 427.130054 383.867738 0.811482 13.163811-9.685593 24.445762-23.397896 25.238824-13.779841 0.603751-25.607214-9.221012-26.453489-22.367427-11.924587-190.140525-177.655166-339.056136-377.278669-339.056136-208.4311 0-377.994983 161.986301-377.994983 361.113501 0 199.112873 169.564907 361.097128 377.994983 361.097128 30.351262 0 60.537771-3.477194 89.754187-10.243295 13.226233-3.103688 26.939559 4.657067 30.189579 17.507746 3.246951 12.791327-4.974291 25.704428-18.328437 28.808116C561.377082 916.878261 527.1567 920.788314 492.843196 920.788314" p-id="1027" fill="#78909c"></path><path d="M531.933493 393.887952l-8.187473 9.562796c53.976332 53.269227 121.601522 89.807399 202.874547 109.506043-9.393951 12.183484-17.5804 23.749914-24.568559 34.784224-34.250058-11.31879-66.2601-25.363667-95.995331-42.188868l0 23.049972L393.632637 528.60212l0-25.208125c-30.644951 17.679661-63.856353 34.336016-99.66593 49.964972-7.538697-11.597129-15.175631-21.575388-22.748097-29.973662 87.091544-32.736589 159.068855-75.947739 216.099756-129.497353L531.933493 393.887952 531.933493 393.887952zM360.842837 290.434765l39.125089 0c-7.572466 14.46648-15.274892 28.265764-23.202445 41.304731l131.967614 0 0 29.118178-150.620439 0c-19.72525 28.342512-40.619116 52.698223-62.782905 73.014944-6.662747-8.428973-14.363126-16.981766-23.200398-25.65838C307.645241 376.332111 337.186044 337.077062 360.842837 290.434765M291.236526 668.531056l267.961938 0c26.095331-41.707914 47.802726-81.56876 65.058738-119.487372l34.57547 17.398252c-20.927635 35.018561-41.854247 69.071122-62.751183 102.08912l112.796996 0 0 30.854728L291.236526 699.385784 291.236526 668.531056zM336.763418 570.757219l29.117155-14.340613c18.166755 28.371164 34.738176 57.646931 49.557696 87.788415l-30.937616 16.500812C370.234741 629.429503 354.343819 599.441515 336.763418 570.757219M406.792355 435.17631c-12.738116-15.957437-25.606191-31.184233-38.669718-45.650713l23.656793-16.950044c13.647835 12.434194 27.622104 26.510794 41.85527 42.156122L406.792355 435.17631zM500.966201 426.01772c-29.116131 26.093285-62.619176 50.414203-100.542904 73.013921l194.294125 0C560.110229 478.465233 528.879947 454.111568 500.966201 426.01772M466.390731 550.34533l31.389918-8.272407c11.830443 31.573089 22.131043 63.576991 30.937616 96.048543l-33.666774 9.561773C486.603075 611.735515 477.016743 579.295686 466.390731 550.34533M559.198463 290.434765l37.757952 0c-6.625908 14.46648-13.614066 28.265764-20.924565 41.304731l145.583726 0 0 29.118178L558.32149 360.857674c-8.188496 12.170181-15.792685 22.723537-22.780843 31.726585-11.211343-6.116301-22.128997-11.33107-32.722262-15.646352C525.273816 352.879979 544.023856 324.039117 559.198463 290.434765M632.899022 441.244516c-13.3214-14.497179-30.2827-30.577413-50.919716-48.25605l21.802562-19.961634c20.312628 16.173354 38.086433 31.57002 53.262064 46.068222L632.899022 441.244516z" p-id="1028" fill="#78909c"></path><path d="M948.343391 580.568678c-14.267958-13.661138-37.634132-13.661138-51.964512 0l-210.568786 201.171766-73.602322-68.225871c-14.331403-13.659091-37.697577-13.659091-51.965535 0-14.296611 13.626345-14.296611 35.947723 0 49.604768l100.890828 91.611487c7.158027 6.853082 16.615423 10.264784 26.063609 10.241248 9.449209 0.023536 18.909675-3.390213 26.065655-10.241248L948.342368 630.176516C962.640002 616.516402 962.640002 594.195024 948.343391 580.568678z" p-id="1029" fill="#78909c"></path>
</svg>