<?xml version="1.0" encoding="utf-8"?>
<!-- Generator: Adobe Illustrator 21.1.0, SVG Export Plug-In . SVG Version: 6.00 Build 0)  -->
<svg version="1.1" id="图层_1" xmlns="http://www.w3.org/2000/svg" xmlns:xlink="http://www.w3.org/1999/xlink" x="0px" y="0px"
	 viewBox="0 0 24 24" style="enable-background:new 0 0 24 24;" xml:space="preserve">
<style type="text/css">
	.st0{fill:#FCBE00;}
	.st1{fill:#FFFFFF;}
	.st2{fill:#59B6D7;}
</style>
<g>
	<g>
		<path class="st2" d="M12,22.4C6.3,22.4,1.6,17.7,1.6,12S6.3,1.6,12,1.6S22.4,6.3,22.4,12S17.7,22.4,12,22.4z"/>
		<path class="st1" d="M12,2.3c5.4,0,9.7,4.3,9.7,9.7s-4.3,9.7-9.7,9.7S2.3,17.4,2.3,12S6.6,2.3,12,2.3 M12,1C5.9,1,1,5.9,1,12
			s4.9,11,11,11s11-4.9,11-11S18.1,1,12,1L12,1z"/>
	</g>
	<g>
		<path class="st1" d="M11.5,17.6L5.9,9.1C5.7,8.8,5.8,8.4,6.1,8.2l0,0C6.4,8,6.8,8.1,7,8.4l5,7.7l5-7.7c0.2-0.3,0.6-0.4,0.9-0.2v0
			c0.3,0.2,0.4,0.6,0.2,0.9l-5.5,8.6C12.3,18,11.7,18,11.5,17.6z"/>
	</g>
</g>
</svg>
